<svg id="visual" viewBox="0 0 900 600" width="900" height="600" xmlns="http://www.w3.org/2000/svg" xmlns:xlink="http://www.w3.org/1999/xlink" version="1.1">
  <g transform="translate(900, 600)">
    <path d="M-486.7 0C-463 -27.5 -439.2 -55 -432.5 -86C-425.9 -117.1 -436.4 -151.8 -418.5 -173.4C-400.6 -195 -354.3 -203.5 -322.6 -215.6C-290.9 -227.6 -273.7 -243.2 -258.8 -258.8C-243.9 -274.4 -231.4 -289.9 -223.9 -335.1C-216.4 -380.2 -214 -454.9 -186.3 -449.7C-158.5 -444.5 -105.3 -359.3 -70 -352.1C-34.8 -345 -17.4 -415.8 0 -486.7L0 0Z" fill="#0052ff" />
  </g>
  <g>
    <path d="M486.7 0C462.6 26 438.5 52 442.3 88C446.2 123.9 478 169.8 449.7 186.3C421.3 202.7 332.8 189.7 292.7 195.6C252.6 201.4 260.9 226.1 267.3 267.3C273.7 308.4 278.2 366 258.9 387.5C239.6 408.9 196.4 394.3 164.9 398.2C133.4 402.1 113.5 424.5 88 442.3C62.4 460.2 31.2 473.5 0 486.7L0 0Z" fill="#0052ff" />
  </g>
</svg>
