<svg id="visual" viewBox="0 0 900 600" width="900" height="600" xmlns="http://www.w3.org/2000/svg" xmlns:xlink="http://www.w3.org/1999/xlink" version="1.1">
  <defs>
    <linearGradient id="sky-linear" x1="0" x2="0" y1="0" y2="1">
      <stop offset="0%" stop-color="#0052ff" stop-opacity="0.7" />
      <stop offset="40%" stop-color="#b435d6" stop-opacity="0.7" />
      <stop offset="50%" stop-color="#e82ba8" stop-opacity="0.7" />
      <stop offset="60%" stop-color="#fb4b81" stop-opacity="0.7" />
      <stop offset="70%" stop-color="#fa7268" stop-opacity="0.7" />
    </linearGradient>
    <symbol id="stars-full-star" viewBox="0 0 900 600" fill="#FFF">
      <path d="M9.5 14.25l-5.584 2.936 1.066-6.218L.465 6.564l6.243-.907L9.5 0l2.792 5.657 6.243.907-4.517 4.404 1.066 6.218" />
    </symbol>
    <style type="text/css"><![CDATA[
        #sky { fill: url(#sky-linear); }
        #star-1 { fill: rgba(0, 0, 0, 0); background: #FFF; }
      ]]></style>
  </defs>
  <rect x="0" y="0" width="900" height="600"  />
  <rect id="sky" x="0" y="0" width="900" height="600"  />
  <circle r="150" cx="600" cy="400" fill="#fff176" opacity="0.3" />
  <circle r="140" cx="600" cy="400" fill="#fff176" opacity="0.3" />
  <circle r="135" cx="600" cy="400" fill="#fff176" opacity="0.5" />
  <circle r="120" cx="600" cy="400" fill="#ffeb3b" opacity="0.7" />
  <circle r="80" cx="600" cy="400" fill="#fdd835" opacity="0.8" />
  <use xlink:href="#stars-full-star" x="100" y="100" />
  <use xlink:href="#stars-full-star" x="150" y="150" />
  <path
    d="M0 399L21.5 396.2C43 393.3 86 387.7 128.8 388.7C171.7 389.7 214.3 397.3 257.2 406.2C300 415 343 425 385.8 432.2C428.7 439.3 471.3 443.7 514.2 436.8C557 430 600 412 642.8 411.2C685.7 410.3 728.3 426.7 771.2 428C814 429.3 857 415.7 878.5 408.8L900 402L900 601L878.5 601C857 601 814 601 771.2 601C728.3 601 685.7 601 642.8 601C600 601 557 601 514.2 601C471.3 601 428.7 601 385.8 601C343 601 300 601 257.2 601C214.3 601 171.7 601 128.8 601C86 601 43 601 21.5 601L0 601Z"
    fill="#fa7268"
  />
  <path
    d="M0 393L21.5 403.3C43 413.7 86 434.3 128.8 441.8C171.7 449.3 214.3 443.7 257.2 434.2C300 424.7 343 411.3 385.8 406.5C428.7 401.7 471.3 405.3 514.2 417.5C557 429.7 600 450.3 642.8 459.3C685.7 468.3 728.3 465.7 771.2 458.3C814 451 857 439 878.5 433L900 427L900 601L878.5 601C857 601 814 601 771.2 601C728.3 601 685.7 601 642.8 601C600 601 557 601 514.2 601C471.3 601 428.7 601 385.8 601C343 601 300 601 257.2 601C214.3 601 171.7 601 128.8 601C86 601 43 601 21.5 601L0 601Z"
    fill="#fb4b81"
  />
  <path
    d="M0 500L21.5 492.8C43 485.7 86 471.3 128.8 473.2C171.7 475 214.3 493 257.2 493.3C300 493.7 343 476.3 385.8 469.8C428.7 463.3 471.3 467.7 514.2 469.5C557 471.3 600 470.7 642.8 468.8C685.7 467 728.3 464 771.2 468.2C814 472.3 857 483.7 878.5 489.3L900 495L900 601L878.5 601C857 601 814 601 771.2 601C728.3 601 685.7 601 642.8 601C600 601 557 601 514.2 601C471.3 601 428.7 601 385.8 601C343 601 300 601 257.2 601C214.3 601 171.7 601 128.8 601C86 601 43 601 21.5 601L0 601Z"
    fill="#e82ba8"
  />
  <path
    d="M0 535L21.5 529.3C43 523.7 86 512.3 128.8 511.5C171.7 510.7 214.3 520.3 257.2 521C300 521.7 343 513.3 385.8 512C428.7 510.7 471.3 516.3 514.2 516.3C557 516.3 600 510.7 642.8 504.7C685.7 498.7 728.3 492.3 771.2 498.2C814 504 857 522 878.5 531L900 540L900 601L878.5 601C857 601 814 601 771.2 601C728.3 601 685.7 601 642.8 601C600 601 557 601 514.2 601C471.3 601 428.7 601 385.8 601C343 601 300 601 257.2 601C214.3 601 171.7 601 128.8 601C86 601 43 601 21.5 601L0 601Z"
    fill="#b435d6"
  />
  <path
    d="M0 539L21.5 537.2C43 535.3 86 531.7 128.8 537C171.7 542.3 214.3 556.7 257.2 557.2C300 557.7 343 544.3 385.8 537.7C428.7 531 471.3 531 514.2 536.3C557 541.7 600 552.3 642.8 552.3C685.7 552.3 728.3 541.7 771.2 537.5C814 533.3 857 535.7 878.5 536.8L900 538L900 601L878.5 601C857 601 814 601 771.2 601C728.3 601 685.7 601 642.8 601C600 601 557 601 514.2 601C471.3 601 428.7 601 385.8 601C343 601 300 601 257.2 601C214.3 601 171.7 601 128.8 601C86 601 43 601 21.5 601L0 601Z"
    fill="#0052ff"
  />
</svg>